C:\Users\r0593348\3dpredictsim\Results\Batchsim_tmt_linear\Pog_s1_tmt_aCst_d05_k800_ig24_act_GRF.mot
nRows=27
nColumns=19

name C:\Users\r0593348\3dpredictsim\Results\Batchsim_tmt_linear\Pog_s1_tmt_aCst_d05_k800_ig24_act_GRF.mot
datacolumns 19
datarows 27
range 0.6171132995 0.9380122153
endheader
time 	ground_force_vx	ground_force_vy	ground_force_vz	ground_force_px	ground_force_py	ground_force_pz	1_ground_force_vx	1_ground_force_vy	1_ground_force_vz	1_ground_force_px	1_ground_force_py	1_ground_force_pz	ground_torque_x	ground_torque_y	ground_torque_z	1_ground_torque_x	1_ground_torque_y	1_ground_torque_z
        0.6171132995	      104.9455078249	      437.8320428469	        1.5250127311	        0.4116298632	        0.0000000000	        0.0323240592	      -41.4806923961	       32.3673334872	      -10.4540265403	        0.9617278020	        0.0000000000	       -0.0529841728	        0.0000000000	        0.0000000000	        0.0000000000	        0.0000000000	        0.0000000000	        0.0000000000	
        0.6294555655	       75.1500471846	      341.5274463373	        6.7546352996	        0.4190318586	        0.0000000000	        0.0293615432	     -111.7273661755	      115.0690216210	      -42.0557297141	        0.9698926582	        0.0000000000	       -0.0510210837	        0.0000000000	        0.0000000000	        0.0000000000	        0.0000000000	        0.0000000000	        0.0000000000	
        0.6417978315	       44.8759261811	      239.6582156594	       13.0547492415	        0.4310103898	        0.0000000000	        0.0240711673	      -53.4004354274	      294.0417855254	      -16.6217479998	        0.9754133753	        0.0000000000	       -0.0491164980	        0.0000000000	        0.0000000000	        0.0000000000	        0.0000000000	        0.0000000000	        0.0000000000	
        0.6541400975	       30.0717693742	      188.3302217757	       12.9201852004	        0.4381286840	        0.0000000000	        0.0203420237	      -53.3326144322	      497.4272581941	        5.4841563180	        0.9785956062	        0.0000000000	       -0.0489236651	        0.0000000000	        0.0000000000	        0.0000000000	        0.0000000000	        0.0000000000	        0.0000000000	
        0.6664823635	       28.3584302944	      147.7378758209	       12.6512063670	        0.4385621060	        0.0000000000	        0.0204273037	      -99.3427476152	      712.9861924135	       15.9364901718	        0.9875458120	        0.0000000000	       -0.0508196822	        0.0000000000	        0.0000000000	        0.0000000000	        0.0000000000	        0.0000000000	        0.0000000000	
        0.6788246295	       18.7124618932	       96.1553643307	       14.5090278282	        0.4388168849	        0.0000000000	        0.0208191108	     -133.4350057275	      857.4762839137	       20.6735216964	        0.9958339093	        0.0000000000	       -0.0526468492	        0.0000000000	        0.0000000000	        0.0000000000	        0.0000000000	        0.0000000000	        0.0000000000	
        0.6911668955	        1.7207791605	       36.7547605791	        8.6378428231	        0.4380940499	        0.0000000000	        0.0210552335	     -141.4174586376	      889.4014104773	       21.1191533570	        1.0011962291	        0.0000000000	       -0.0536861099	        0.0000000000	        0.0000000000	        0.0000000000	        0.0000000000	        0.0000000000	        0.0000000000	
        0.7035091615	        0.4660511845	       -0.4579945496	       -0.0178784325	        0.0000000000	        0.0000000000	        0.0000000000	     -129.9537875034	      865.2395194081	       20.8378302183	        1.0051760256	        0.0000000000	       -0.0542598296	        0.0000000000	        0.0000000000	        0.0000000000	        0.0000000000	        0.0000000000	        0.0000000000	
        0.7158514274	        0.3513129225	       -0.2703902230	        0.0197313827	        0.0000000000	        0.0000000000	        0.0000000000	     -114.1903437442	      818.5815112834	       20.6291313755	        1.0091168630	        0.0000000000	       -0.0544977907	        0.0000000000	        0.0000000000	        0.0000000000	        0.0000000000	        0.0000000000	        0.0000000000	
        0.7281936934	       -3.7794605725	        2.5073686996	       -0.2888778691	        0.0000000000	        0.0000000000	        0.0000000000	     -100.9421550167	      772.5529689861	       19.4668929941	        1.0133622384	        0.0000000000	       -0.0544628133	        0.0000000000	        0.0000000000	        0.0000000000	        0.0000000000	        0.0000000000	        0.0000000000	
        0.7405359594	       -3.3258179499	        1.9765263688	       -0.2683234980	        0.0000000000	        0.0000000000	        0.0000000000	      -90.6004525040	      739.7630297597	       18.8641603997	        1.0184668836	        0.0000000000	       -0.0541781851	        0.0000000000	        0.0000000000	        0.0000000000	        0.0000000000	        0.0000000000	        0.0000000000	
        0.7528782254	       -2.5622989466	        1.3998323140	       -0.2182497253	        0.0000000000	        0.0000000000	        0.0000000000	      -81.3797042191	      715.2940716961	       19.0485374511	        1.0242829268	        0.0000000000	       -0.0536439958	        0.0000000000	        0.0000000000	        0.0000000000	        0.0000000000	        0.0000000000	        0.0000000000	
        0.7652204914	       -2.0002961613	        1.0360139407	       -0.1636256671	        0.0000000000	        0.0000000000	        0.0000000000	      -71.8207844203	      690.3004121543	       19.4804946973	        1.0299505636	        0.0000000000	       -0.0531395604	        0.0000000000	        0.0000000000	        0.0000000000	        0.0000000000	        0.0000000000	        0.0000000000	
        0.7775627574	       -1.4242481450	        0.7061694019	       -0.1146647608	        0.0000000000	        0.0000000000	        0.0000000000	      -62.6408285907	      665.8540624377	       20.1285024436	        1.0353071105	        0.0000000000	       -0.0527364001	        0.0000000000	        0.0000000000	        0.0000000000	        0.0000000000	        0.0000000000	        0.0000000000	
        0.7899050234	       -1.0382286674	        0.4973366432	       -0.0824199672	        0.0000000000	        0.0000000000	        0.0000000000	      -54.2601699193	      644.6733113128	       20.4165305074	        1.0404873196	        0.0000000000	       -0.0524117586	        0.0000000000	        0.0000000000	        0.0000000000	        0.0000000000	        0.0000000000	        0.0000000000	
        0.8022472894	       -0.8160144494	        0.3800082860	       -0.0638549028	        0.0000000000	        0.0000000000	        0.0000000000	      -46.6506306419	      627.4459509436	       20.7352738535	        1.0458457914	        0.0000000000	       -0.0520956666	        0.0000000000	        0.0000000000	        0.0000000000	        0.0000000000	        0.0000000000	        0.0000000000	
        0.8145895554	       -0.6972082849	        0.3170618773	       -0.0537163931	        0.0000000000	        0.0000000000	        0.0000000000	      -40.0757865071	      614.5005142831	       21.0373836897	        1.0518507193	        0.0000000000	       -0.0516958257	        0.0000000000	        0.0000000000	        0.0000000000	        0.0000000000	        0.0000000000	        0.0000000000	
        0.8269318214	       -0.6424309731	        0.2860648861	       -0.0487249058	        0.0000000000	        0.0000000000	        0.0000000000	      -35.1357515970	      605.5068545008	       21.0308992784	        1.0585562651	        0.0000000000	       -0.0511682342	        0.0000000000	        0.0000000000	        0.0000000000	        0.0000000000	        0.0000000000	        0.0000000000	
        0.8392740874	       -0.6371474646	        0.2781829058	       -0.0474168681	        0.0000000000	        0.0000000000	        0.0000000000	      -31.3199784836	      599.7063136445	       20.4981844330	        1.0655824799	        0.0000000000	       -0.0505437553	        0.0000000000	        0.0000000000	        0.0000000000	        0.0000000000	        0.0000000000	        0.0000000000	
        0.8516163533	       -0.6790329705	        0.2908341876	       -0.0490201146	        0.0000000000	        0.0000000000	        0.0000000000	      -27.9996280367	      596.1807888134	       19.4087041617	        1.0727557742	        0.0000000000	       -0.0498454004	        0.0000000000	        0.0000000000	        0.0000000000	        0.0000000000	        0.0000000000	        0.0000000000	
        0.8639586193	       -0.7640671728	        0.3214158399	       -0.0527320839	        0.0000000000	        0.0000000000	        0.0000000000	      -25.1916637917	      593.7537111993	       18.1761149022	        1.0798965058	        0.0000000000	       -0.0490973059	        0.0000000000	        0.0000000000	        0.0000000000	        0.0000000000	        0.0000000000	        0.0000000000	
        0.8763008853	       -0.8853114301	        0.3662858575	       -0.0579919396	        0.0000000000	        0.0000000000	        0.0000000000	      -22.4589789506	      591.1707794422	       17.6787487244	        1.0868235450	        0.0000000000	       -0.0483311185	        0.0000000000	        0.0000000000	        0.0000000000	        0.0000000000	        0.0000000000	        0.0000000000	
        0.8886431513	       -1.0327229861	        0.4209215286	       -0.0642968488	        0.0000000000	        0.0000000000	        0.0000000000	      -19.5963104629	      587.6553558696	       17.5434334701	        1.0935581658	        0.0000000000	       -0.0475587394	        0.0000000000	        0.0000000000	        0.0000000000	        0.0000000000	        0.0000000000	        0.0000000000	
        0.9009854173	       -1.1910278696	        0.4790489830	       -0.0707226774	        0.0000000000	        0.0000000000	        0.0000000000	      -16.7532807932	      582.9140174132	       17.5928569274	        1.1000897610	        0.0000000000	       -0.0467875372	        0.0000000000	        0.0000000000	        0.0000000000	        0.0000000000	        0.0000000000	        0.0000000000	
        0.9133276833	       -1.3403031308	        0.5329866426	       -0.0762008781	        0.0000000000	        0.0000000000	        0.0000000000	      -13.7280367154	      577.5455454802	       17.5985017224	        1.1064593038	        0.0000000000	       -0.0460152459	        0.0000000000	        0.0000000000	        0.0000000000	        0.0000000000	        0.0000000000	        0.0000000000	
        0.9256699493	       -1.4721612768	        0.5796566591	       -0.0799452968	        0.0000000000	        0.0000000000	        0.0000000000	      -10.3830673237	      571.4285517181	       17.4429039252	        1.1126637632	        0.0000000000	       -0.0452418621	        0.0000000000	        0.0000000000	        0.0000000000	        0.0000000000	        0.0000000000	        0.0000000000	
        0.9380122153	       -1.6047338708	        0.6260714596	       -0.0820817351	        0.0000000000	        0.0000000000	        0.0000000000	       -6.8210290125	      564.6637394111	       16.8229646757	        1.1187132269	        0.0000000000	       -0.0444646190	        0.0000000000	        0.0000000000	        0.0000000000	        0.0000000000	        0.0000000000	        0.0000000000	
